<svg width="8" height="8" viewBox="0 0 8 8" fill="none" xmlns="http://www.w3.org/2000/svg">
<path d="M4.70497 3.99997L6.85497 1.85497C6.94912 1.76082 7.00202 1.63312 7.00202 1.49997C7.00202 1.36682 6.94912 1.23912 6.85497 1.14497C6.76082 1.05082 6.63312 0.997925 6.49997 0.997925C6.36682 0.997925 6.23912 1.05082 6.14497 1.14497L3.99997 3.29497L1.85497 1.14497C1.76082 1.05082 1.63312 0.997925 1.49997 0.997925C1.36682 0.997925 1.23912 1.05082 1.14497 1.14497C1.05082 1.23912 0.997924 1.36682 0.997924 1.49997C0.997924 1.63312 1.05082 1.76082 1.14497 1.85497L3.29497 3.99997L1.14497 6.14497C1.09811 6.19145 1.06091 6.24675 1.03552 6.30768C1.01014 6.36861 0.99707 6.43397 0.99707 6.49997C0.99707 6.56598 1.01014 6.63133 1.03552 6.69226C1.06091 6.75319 1.09811 6.80849 1.14497 6.85497C1.19145 6.90183 1.24675 6.93903 1.30768 6.96442C1.36861 6.9898 1.43396 7.00287 1.49997 7.00287C1.56598 7.00287 1.63133 6.9898 1.69226 6.96442C1.75319 6.93903 1.80849 6.90183 1.85497 6.85497L3.99997 4.70497L6.14497 6.85497C6.19145 6.90183 6.24675 6.93903 6.30768 6.96442C6.36861 6.9898 6.43396 7.00287 6.49997 7.00287C6.56598 7.00287 6.63133 6.9898 6.69226 6.96442C6.75319 6.93903 6.80849 6.90183 6.85497 6.85497C6.90183 6.80849 6.93903 6.75319 6.96442 6.69226C6.9898 6.63133 7.00287 6.56598 7.00287 6.49997C7.00287 6.43397 6.9898 6.36861 6.96442 6.30768C6.93903 6.24675 6.90183 6.19145 6.85497 6.14497L4.70497 3.99997Z" fill="#969696"/>
</svg>
