<svg width="18" height="18" viewBox="0 0 18 18" fill="none" xmlns="http://www.w3.org/2000/svg">
<path d="M14.9498 5.14425C15.0152 5.07495 15.094 5.01974 15.1815 4.98201C15.2691 4.94427 15.3633 4.92481 15.4586 4.92481C15.5539 4.92481 15.6482 4.94427 15.7357 4.98201C15.8232 5.01974 15.9021 5.07495 15.9675 5.14425C16.2488 5.43675 16.2488 5.91075 15.9675 6.20325L7.32001 15.21C6.9931 15.5565 6.59885 15.8325 6.16145 16.0211C5.72406 16.2098 5.25273 16.3071 4.77639 16.3071C4.30004 16.3071 3.82872 16.2098 3.39132 16.0211C2.95392 15.8325 2.55968 15.5565 2.23276 15.21C0.828012 13.7475 0.828012 11.3752 2.23276 9.912L9.86251 1.965C10.0587 1.75712 10.2952 1.59151 10.5577 1.47831C10.8201 1.36512 11.1029 1.30673 11.3888 1.30673C11.6746 1.30673 11.9574 1.36512 12.2198 1.47831C12.4823 1.59151 12.7188 1.75712 12.915 1.965C13.758 2.8425 13.758 4.266 12.915 5.14425L6.30151 12.03C6.23611 12.0992 6.15728 12.1543 6.06985 12.192C5.98241 12.2296 5.88821 12.249 5.79301 12.249C5.69781 12.249 5.60361 12.2296 5.51618 12.192C5.42874 12.1543 5.34991 12.0992 5.28451 12.03C5.14928 11.8869 5.07393 11.6974 5.07393 11.5005C5.07393 11.3036 5.14928 11.1141 5.28451 10.971L11.898 4.08375C12.0335 3.94058 12.1089 3.75097 12.1089 3.55388C12.1089 3.35678 12.0335 3.16717 11.898 3.024C11.8326 2.9547 11.7537 2.89949 11.6662 2.86176C11.5787 2.82402 11.4844 2.80456 11.3891 2.80456C11.2938 2.80456 11.1996 2.82402 11.112 2.86176C11.0245 2.89949 10.9457 2.9547 10.8803 3.024L3.24901 10.9725C2.40676 11.85 2.40676 13.2735 3.24901 14.151C3.44517 14.3589 3.68173 14.5245 3.94418 14.6377C4.20663 14.7509 4.48944 14.8093 4.77526 14.8093C5.06108 14.8093 5.34389 14.7509 5.60634 14.6377C5.86879 14.5245 6.10535 14.3589 6.30151 14.151L14.9498 5.14425Z" fill="black"/>
</svg>
